<svg width="14" height="12" viewBox="0 0 14 12" fill="none" xmlns="http://www.w3.org/2000/svg">
<path d="M13.7273 1.22217L8.38717 6.31889L13.7837 10.9765C13.9193 10.7807 14 10.5439 14 10.2882V1.97886C14 1.69117 13.8953 1.43031 13.7273 1.22217Z" fill="#1579E9"/>
<path d="M6.11633 6.1585L6.3023 6.3314C6.69384 6.69587 7.30656 6.69562 7.69742 6.33164L13.367 0.920357C13.1943 0.825391 12.9988 0.766602 12.7881 0.766602H1.21187C0.96033 0.766602 0.726539 0.843848 0.532616 0.975427L6.11516 6.15779C6.1154 6.15804 6.11587 6.15826 6.11633 6.1585Z" fill="#1579E9"/>
<path d="M0.204116 1.30713C0.075545 1.49963 -6.10352e-05 1.73041 -6.10352e-05 1.97867V10.288C-6.10352e-05 10.5292 0.0727286 10.753 0.194546 10.942L5.60652 6.3222L0.204116 1.30713Z" fill="#1579E9"/>
<path d="M8.01943 6.66887L8.01757 6.67051L8.01733 6.67075L8.01522 6.67261C7.65939 7.00394 7.17732 7.12833 6.7265 7.04501C6.69686 7.03965 6.66864 7.02773 6.63925 7.02051C6.57975 7.0058 6.51953 6.99276 6.46192 6.97058C6.37628 6.93769 6.29321 6.89662 6.21388 6.84737C6.21317 6.8469 6.21249 6.84666 6.21178 6.84644C6.13174 6.79673 6.05567 6.73865 5.98428 6.67237L5.95067 6.64111L0.51841 11.2784C0.715122 11.4165 0.953589 11.4992 1.21188 11.4992H12.7879C13.0315 11.4992 13.2573 11.4257 13.4475 11.3015L8.04836 6.64204L8.01943 6.66887Z" fill="#1579E9"/>
</svg>
