<svg width="12" height="14" viewBox="0 0 12 14" fill="none" xmlns="http://www.w3.org/2000/svg">
<path d="M3.68182 2.47893C3.68182 1.10986 4.71971 0 6 0C7.28029 0 8.31818 1.10986 8.31818 2.47893C8.31818 3.69874 7.49427 4.71275 6.40909 4.91941V6.70902H8.86364C9.54142 6.70902 10.0909 7.29661 10.0909 8.0214V9.08063C11.1761 9.28723 12 10.3013 12 11.5211C12 12.8901 10.9621 14 9.68182 14C8.40153 14 7.36364 12.8901 7.36364 11.5211C7.36364 10.3013 8.18755 9.28723 9.27273 9.08063V8.0214C9.27273 7.7798 9.08956 7.58394 8.86364 7.58394H3.13636C2.91043 7.58394 2.72727 7.7798 2.72727 8.0214V9.08063C3.81246 9.28723 4.63636 10.3013 4.63636 11.5211C4.63636 12.8901 3.59848 14 2.31818 14C1.03789 14 0 12.8901 0 11.5211C0 10.3013 0.823904 9.28723 1.90909 9.08063V8.0214C1.90909 7.29661 2.45856 6.70902 3.13636 6.70902H5.59091V4.91941C4.50573 4.71275 3.68182 3.69874 3.68182 2.47893Z" fill="#1579E9"/>
</svg>
