<svg width="30" height="30" viewBox="0 0 30 30" fill="none" xmlns="http://www.w3.org/2000/svg">
<path d="M14.9123 11.0083C12.6304 11.0083 10.9731 12.7346 10.9731 15.1117C10.9731 17.5159 12.5926 19.1941 14.9123 19.1941C17.2319 19.1941 18.852 17.5159 18.852 15.1117C18.852 12.7346 17.1949 11.0083 14.9123 11.0083Z" fill="black"/>
<path d="M15.0004 0C6.71564 0 0 6.71628 0 15C0 23.2833 6.71564 29.9988 15.0004 29.9988C23.2831 29.9988 30 23.2833 30 15C30 6.71628 23.2831 0 15.0004 0ZM21.1966 21.2606C20.0428 21.2606 19.1349 20.3962 18.9108 19.1711C18.9069 19.1758 18.9029 19.1798 18.899 19.1839C17.8799 20.2344 16.4643 20.8119 14.9122 20.8119C13.3607 20.8119 11.9447 20.2344 10.9258 19.1839C9.91295 18.1396 9.35531 16.694 9.35531 15.1117C9.35531 13.53 9.91249 12.081 10.9244 11.0313C11.9446 9.97299 13.3611 9.39044 14.9122 9.39044C16.464 9.39044 17.88 9.97299 18.9005 11.0313C18.9016 11.0325 18.9026 11.0337 18.9037 11.0348C19.0156 10.7208 19.3149 10.4952 19.6678 10.4952C20.1138 10.4952 20.4771 10.8571 20.4771 11.304V18.577C20.4771 19.2689 20.8476 19.6427 21.1966 19.6427C22.2673 19.6427 23.0164 17.8379 23.0164 15.2548C23.0164 10.5029 19.6797 7.05432 15.0805 7.05432C10.3885 7.05432 6.98434 10.4771 6.98434 15.1936C6.98434 19.6853 10.2775 22.9446 14.8165 22.9446C15.8194 22.9446 17.2247 22.6002 18.084 22.1425C18.4792 21.9329 18.9695 22.0828 19.1792 22.4771C19.3884 22.8712 19.2386 23.3617 18.8436 23.5712C17.7647 24.146 16.0698 24.5629 14.8165 24.5629C12.1864 24.5629 9.78384 23.6193 8.05391 21.9058C6.32105 20.1896 5.36642 17.8052 5.36642 15.1936C5.36642 12.4741 6.34385 9.99286 8.12012 8.20721C9.89952 6.42036 12.3713 5.4364 15.0805 5.4364C17.7469 5.4364 20.1806 6.4291 21.9287 8.22974C23.6734 10.0252 24.6338 12.5202 24.6338 15.2548C24.6338 18.9035 23.284 21.2606 21.1966 21.2606Z" fill="black"/>
</svg>
