<svg width="14" height="16" viewBox="0 0 14 16" fill="none" xmlns="http://www.w3.org/2000/svg">
<path d="M10.8936 2.59363H2.07501C1.76376 2.59363 1.55627 2.38613 1.55627 2.07489C1.55627 1.76365 1.76376 1.55615 2.07501 1.55615H10.8936C11.2048 1.55615 11.4123 1.76365 11.4123 2.07489C11.4123 2.38613 11.2048 2.59363 10.8936 2.59363Z" fill="#1579E9"/>
<path d="M13.8504 14.577L12.3979 13.1246C12.761 12.6058 12.9166 12.0352 12.9166 11.4127C12.9166 9.70089 11.516 8.30029 9.85608 8.30029C8.19612 8.30029 6.74365 9.70089 6.74365 11.4127C6.74365 13.1246 8.14425 14.5252 9.80421 14.5252C10.4267 14.5252 11.0492 14.3177 11.516 14.0064L12.9685 15.4589C13.176 15.6664 13.591 15.6664 13.7985 15.4589C14.0579 15.1995 14.0579 14.7845 13.8504 14.577Z" fill="#1579E9"/>
<path d="M5.70612 11.4122C5.70612 9.1298 7.57358 7.26234 9.80416 7.26234C10.3748 7.26234 10.8935 7.36609 11.4122 7.57358V3.63117C11.4122 3.31993 11.2048 3.11243 10.8935 3.11243H3.11243H2.07495C1.50434 3.11243 1.03748 2.64557 1.03748 2.07495C1.03748 1.50434 1.50434 1.03748 2.07495 1.03748H10.8935C11.2048 1.03748 11.4122 0.829982 11.4122 0.518739C11.4122 0.207495 11.2048 0 10.8935 0H2.07495C0.93373 0 0 0.93373 0 2.07495V12.4497C0 13.591 0.93373 14.5247 2.07495 14.5247H3.11243H7.15859C6.27674 13.7466 5.70612 12.6572 5.70612 11.4122Z" fill="#1579E9"/>
</svg>
