<svg width="16" height="16" viewBox="0 0 16 16" fill="none" xmlns="http://www.w3.org/2000/svg">
<path d="M8 0C3.58166 0 0 3.58178 0 8C0 12.4185 3.58166 16 8 16C12.4183 16 16 12.4185 16 8C16 3.58178 12.4183 0 8 0ZM8 12C7.44769 12 7 11.5525 7 11C7 10.4478 7.44769 10 8 10C8.55231 10 9 10.4478 9 11C9 11.5525 8.55231 12 8 12ZM8.76369 7.84912C8.60597 7.91406 8.5 8.09131 8.5 8.29003V8.5C8.5 8.77637 8.27637 9 8 9C7.72363 9 7.5 8.77637 7.5 8.5V8.29003C7.5 7.68213 7.84619 7.146 8.38184 6.92478C8.81934 6.74363 9.06691 6.28756 8.98341 5.81491C8.91456 5.42134 8.57862 5.08541 8.18556 5.01656C7.88087 4.96284 7.58741 5.0405 7.35744 5.23384C7.13037 5.42481 7 5.70409 7 6C7 6.27637 6.77637 6.5 6.5 6.5C6.22363 6.5 6 6.27637 6 6C6 5.40772 6.26025 4.84912 6.71434 4.46778C7.16797 4.08691 7.76609 3.92822 8.35837 4.03175C9.16503 4.17334 9.82712 4.83547 9.96872 5.64209C10.1333 6.57959 9.63819 7.48731 8.76369 7.84912Z" fill="#1579E9"/>
</svg>
