<svg width="84" height="22" viewBox="0 0 84 22" fill="none" xmlns="http://www.w3.org/2000/svg">
<path d="M4.06325 5.88473C3.87644 6.53858 3.70519 7.37926 3.54951 8.40674C3.39383 9.43423 3.31599 10.4851 3.31599 11.5593C3.31599 12.6179 3.38604 13.6765 3.52616 14.7351C3.68184 15.7782 3.86865 16.6656 4.08661 17.3973C4.52251 18.8295 4.92728 19.8959 5.30091 20.5965L5.51108 21.0168L4.32013 21.9276C4.16445 21.8186 3.90757 21.5695 3.54951 21.1803C3.19144 20.8067 2.8723 20.433 2.59208 20.0594C2.32742 19.6858 2.03163 19.1954 1.7047 18.5882C1.37777 17.9811 1.09755 17.3506 0.864025 16.6967C0.288008 15.1243 0 13.5364 0 11.9329C0 10.3138 0.147896 8.90492 0.443689 7.70618C0.739481 6.49188 1.09755 5.52666 1.51788 4.81053C1.93822 4.07884 2.35856 3.44833 2.77889 2.91902C3.2148 2.3897 3.58065 2.01607 3.87644 1.79812L4.32013 1.47119L5.44102 2.45198C5.25421 2.7322 5.02069 3.21481 4.74046 3.8998C4.47581 4.56923 4.25007 5.23087 4.06325 5.88473Z" fill="#1579E9"/>
<path d="M6.86915 6.1883C7.74096 5.98592 8.55049 5.88473 9.29776 5.88473C10.045 5.88473 10.6755 5.90808 11.1893 5.95478V15.2722C11.7964 15.5058 12.2245 15.7704 12.4736 16.0662L12.2401 17.8643H6.86915L6.63563 16.0662C6.85358 15.7704 7.2817 15.5058 7.91999 15.2722V8.78038C7.37511 8.59356 6.94699 8.3289 6.63563 7.98641L6.86915 6.1883Z" fill="#1579E9"/>
<path d="M13.6411 6.1883C14.4973 6.00149 15.2679 5.90808 15.9529 5.90808C16.6379 5.90808 17.2061 5.92365 17.6576 5.95478V7.12238C18.0468 6.79545 18.5605 6.5308 19.1988 6.32841C19.8527 6.11046 20.4754 6.00149 21.067 6.00149C22.5927 6.00149 23.6591 6.35955 24.2662 7.07568C24.889 7.79181 25.2003 9.02947 25.2003 10.7887V15.2722C25.8075 15.5058 26.2356 15.7704 26.4847 16.0662L26.2512 17.8643H20.8802L20.6467 16.0662C20.8646 15.7704 21.2927 15.5058 21.931 15.2722V10.6485C21.931 9.80787 21.7909 9.24742 21.5107 8.96719C21.246 8.6714 20.7634 8.52351 20.0629 8.52351C19.3623 8.52351 18.6617 8.77259 17.9612 9.27077V15.2722C18.5683 15.5058 18.9965 15.7704 19.2455 16.0662L19.012 17.8643H13.6411L13.4075 16.0662C13.6255 15.7704 14.0536 15.5058 14.6919 15.2722V8.78038C14.147 8.59356 13.7189 8.3289 13.4075 7.98641L13.6411 6.1883Z" fill="#1579E9"/>
<path d="M31.966 8.10317C30.9385 8.10317 30.4248 8.40675 30.4248 9.0139C30.4248 9.58992 30.9619 10.018 32.0361 10.2983L33.8809 10.7887C35.7802 11.2868 36.7298 12.3844 36.7298 14.0813C36.7298 15.2489 36.3173 16.2063 35.4922 16.9536C34.6826 17.6853 33.3827 18.0511 31.5924 18.0511C29.8176 18.0511 28.4321 17.802 27.4357 17.3039C27.4202 17.1326 27.4124 16.9614 27.4124 16.7901C27.4124 15.9339 27.5836 15.1633 27.9261 14.4783H29.8643C30.0667 14.8519 30.199 15.2411 30.2613 15.6459C30.5727 15.7393 31.0164 15.786 31.5924 15.786C32.9624 15.786 33.6474 15.3968 33.6474 14.6184C33.6474 14.3693 33.554 14.1669 33.3671 14.0112C33.1803 13.84 32.8145 13.6765 32.2696 13.5208L30.4248 12.9837C29.4751 12.7191 28.7356 12.3299 28.2063 11.8161C27.677 11.2868 27.4124 10.5162 27.4124 9.50429C27.4124 8.4768 27.8249 7.63613 28.65 6.98227C29.4751 6.32841 30.6505 6.00149 32.1762 6.00149C33.7174 6.00149 35.0173 6.22722 36.076 6.67869C36.0915 6.83437 36.0993 6.99005 36.0993 7.14573C36.0993 7.95527 35.9281 8.70254 35.5856 9.38753H33.6707C33.4683 9.02947 33.336 8.65583 33.2737 8.26663C32.8378 8.15766 32.4019 8.10317 31.966 8.10317Z" fill="#1579E9"/>
<path d="M43.4359 18.0511C41.5677 18.0511 40.1588 17.553 39.2092 16.5566C38.2751 15.5603 37.808 14.1124 37.808 12.2131C37.808 11.0611 37.9715 10.0725 38.2984 9.24742C38.6254 8.40675 39.069 7.76067 39.6295 7.3092C40.7193 6.43739 41.988 6.00149 43.4359 6.00149C44.8837 6.00149 45.989 6.37512 46.7519 7.12238C47.5303 7.85408 47.9195 9.17736 47.9195 11.0922C47.9195 12.2131 47.3668 12.7736 46.2615 12.7736H41.1941C41.2564 13.7544 41.5054 14.4471 41.9413 14.8519C42.3928 15.2567 43.1012 15.4591 44.0664 15.4591C44.5957 15.4591 45.1017 15.3968 45.5843 15.2722C46.0669 15.1477 46.4172 15.0232 46.6351 14.8986L46.962 14.7118L47.6626 16.58C47.5692 16.6889 47.4291 16.829 47.2423 17.0003C47.071 17.156 46.6195 17.3739 45.8878 17.6542C45.1717 17.9188 44.3544 18.0511 43.4359 18.0511ZM44.9071 10.6952C44.9382 10.4773 44.9538 10.2126 44.9538 9.90128C44.9538 9.58991 44.8292 9.26299 44.5801 8.92049C44.331 8.56242 43.8951 8.38339 43.2724 8.38339C42.6653 8.38339 42.1982 8.57021 41.8713 8.94384C41.5444 9.31747 41.3264 9.94798 41.2174 10.8354L44.9071 10.6952Z" fill="#1579E9"/>
<path d="M56.1253 9.0606C54.9422 9.0606 54.1248 9.28634 53.6734 9.73781V15.0854C54.9344 15.3189 55.7984 15.6459 56.2654 16.0662L56.0319 17.8643H49.3532L49.1197 16.0662C49.3377 15.7704 49.7658 15.5058 50.4041 15.2722V8.78038C49.8592 8.59356 49.4311 8.3289 49.1197 7.98641L49.3532 6.1883C50.2095 6.00149 50.9801 5.90808 51.6651 5.90808C52.3501 5.90808 52.9183 5.92365 53.3698 5.95478V7.42596C53.7279 7.00562 54.1871 6.66313 54.7476 6.39847C55.308 6.11825 55.814 5.97813 56.2654 5.97813C56.7325 5.97813 57.0516 6.01705 57.2229 6.09489L57.1528 9.13066C56.8415 9.08395 56.499 9.0606 56.1253 9.0606Z" fill="#1579E9"/>
<path d="M58.4067 6.1883C59.263 6.00149 60.0336 5.90808 60.7186 5.90808C61.4036 5.90808 61.9718 5.92365 62.4233 5.95478V7.12238C62.7969 6.81102 63.2639 6.54637 63.8244 6.32841C64.3848 6.11046 64.8908 6.00149 65.3423 6.00149C67.117 6.00149 68.3002 6.44517 68.8918 7.33255C69.281 6.95892 69.7947 6.64756 70.433 6.39847C71.0713 6.13381 71.6629 6.00149 72.2078 6.00149C73.9203 6.00149 75.0723 6.39069 75.6639 7.16909C76.2555 7.93192 76.5512 9.37196 76.5512 11.4892V15.2722C77.1584 15.5058 77.5865 15.7704 77.8356 16.0662L77.6021 17.8643H72.2311L71.9976 16.0662C72.2156 15.7704 72.6437 15.5058 73.282 15.2722V10.6485C73.282 9.7923 73.1652 9.22407 72.9317 8.94384C72.6982 8.66362 72.2311 8.52351 71.5306 8.52351C70.8456 8.52351 70.1917 8.78038 69.569 9.29412C69.6468 9.82344 69.6858 10.5551 69.6858 11.4892V15.2722C70.2929 15.5058 70.721 15.7704 70.9701 16.0662L70.7366 17.8643H65.3656L65.1321 16.0662C65.3501 15.7704 65.7782 15.5058 66.4165 15.2722V10.6485C66.4165 9.7923 66.2997 9.22407 66.0662 8.94384C65.8327 8.66362 65.3734 8.52351 64.6884 8.52351C64.0034 8.52351 63.3496 8.77259 62.7268 9.27077V15.2722C63.334 15.5058 63.7621 15.7704 64.0112 16.0662L63.7777 17.8643H58.4067L58.1732 16.0662C58.3911 15.7704 58.8193 15.5058 59.4576 15.2722V8.78038C58.9127 8.59356 58.4846 8.3289 58.1732 7.98641L58.4067 6.1883Z" fill="#1579E9"/>
<path d="M82.4821 4.81053C82.8713 5.51109 83.2216 6.46853 83.533 7.68283C83.8443 8.89714 84 10.1737 84 11.5126C84 12.8514 83.8521 14.1202 83.5563 15.3189C83.2605 16.5177 82.9025 17.4985 82.4821 18.2613C81.6103 19.8337 80.8241 20.9312 80.1236 21.5539L79.6799 21.9276L78.4889 21.0168C78.629 20.8145 78.8548 20.3241 79.1661 19.5457C79.4775 18.7828 79.7344 18.0511 79.9367 17.3506C80.4349 15.5603 80.684 13.622 80.684 11.5359C80.684 9.4031 80.4349 7.51158 79.9367 5.86137C79.4697 4.38241 79.0805 3.37049 78.7691 2.82561L78.559 2.45198L79.6799 1.47119C79.8044 1.54903 79.9601 1.66579 80.1469 1.82147C80.3337 1.96158 80.6762 2.31965 81.1744 2.89567C81.6726 3.47168 82.1085 4.10997 82.4821 4.81053Z" fill="#1579E9"/>
<path d="M4.06325 5.88473C3.87644 6.53858 3.70519 7.37926 3.54951 8.40674C3.39383 9.43423 3.31599 10.4851 3.31599 11.5593C3.31599 12.6179 3.38604 13.6765 3.52616 14.7351C3.68184 15.7782 3.86865 16.6656 4.08661 17.3973C4.52251 18.8295 4.92728 19.8959 5.30091 20.5965L5.51108 21.0168L4.32013 21.9276C4.16445 21.8186 3.90757 21.5695 3.54951 21.1803C3.19144 20.8067 2.8723 20.433 2.59208 20.0594C2.32742 19.6858 2.03163 19.1954 1.7047 18.5882C1.37777 17.9811 1.09755 17.3506 0.864025 16.6967C0.288008 15.1243 0 13.5364 0 11.9329C0 10.3138 0.147896 8.90492 0.443689 7.70618C0.739481 6.49188 1.09755 5.52666 1.51788 4.81053C1.93822 4.07884 2.35856 3.44833 2.77889 2.91902C3.2148 2.3897 3.58065 2.01607 3.87644 1.79812L4.32013 1.47119L5.44102 2.45198C5.25421 2.7322 5.02069 3.21481 4.74046 3.8998C4.47581 4.56923 4.25007 5.23087 4.06325 5.88473Z" fill="#1579E9"/>
<path d="M82.4821 4.81053C82.8713 5.51109 83.2216 6.46853 83.533 7.68283C83.8443 8.89714 84 10.1737 84 11.5126C84 12.8514 83.8521 14.1202 83.5563 15.3189C83.2605 16.5177 82.9025 17.4985 82.4821 18.2613C81.6103 19.8337 80.8241 20.9312 80.1236 21.5539L79.6799 21.9276L78.4889 21.0168C78.629 20.8145 78.8548 20.3241 79.1661 19.5457C79.4775 18.7828 79.7344 18.0511 79.9367 17.3506C80.4349 15.5603 80.684 13.622 80.684 11.5359C80.684 9.4031 80.4349 7.51158 79.9367 5.86137C79.4697 4.38241 79.0805 3.37049 78.7691 2.82561L78.559 2.45198L79.6799 1.47119C79.8044 1.54903 79.9601 1.66579 80.1469 1.82147C80.3337 1.96158 80.6762 2.31965 81.1744 2.89567C81.6726 3.47168 82.1085 4.10997 82.4821 4.81053Z" fill="#1579E9"/>
<path d="M8.9476 1.46353C9.09727 1.00287 9.74898 1.00287 9.89865 1.46353L9.95312 1.63115C10.0201 1.83716 10.212 1.97664 10.4286 1.97664H10.6049C11.0893 1.97664 11.2906 2.59645 10.8988 2.88115L10.7562 2.98475C10.581 3.11207 10.5076 3.33775 10.5746 3.54377L10.629 3.71139C10.7787 4.17205 10.2515 4.55511 9.85961 4.27041L9.71702 4.16681C9.54177 4.03949 9.30447 4.03949 9.12923 4.16681L8.98664 4.27041C8.59478 4.55511 8.06754 4.17205 8.21722 3.71139L8.27168 3.54377C8.33862 3.33775 8.26529 3.11207 8.09005 2.98475L7.94746 2.88115C7.5556 2.59645 7.75699 1.97664 8.24135 1.97664H8.4176C8.63422 1.97664 8.82619 1.83716 8.89313 1.63115L8.9476 1.46353Z" fill="#1579E9"/>
</svg>
