<svg width="100" height="27" viewBox="0 0 100 27" fill="none" xmlns="http://www.w3.org/2000/svg">
<path d="M4.83721 7.00555C4.61481 7.78395 4.41094 8.78475 4.22561 10.008C4.04027 11.2312 3.94761 12.4822 3.94761 13.761C3.94761 15.0212 4.03101 16.2815 4.19781 17.5418C4.38314 18.7835 4.60554 19.8399 4.86501 20.711C5.38394 22.416 5.86581 23.6856 6.31061 24.5196L6.56081 25.02L5.14301 26.1042C4.95767 25.9744 4.65187 25.6779 4.22561 25.2146C3.79934 24.7698 3.4194 24.325 3.0858 23.8802C2.77074 23.4354 2.4186 22.8516 2.0294 22.1288C1.6402 21.406 1.3066 20.6554 1.0286 19.877C0.342867 18.0051 0 16.1147 0 14.2058C0 12.2783 0.176067 10.601 0.528201 9.17395C0.880335 7.72835 1.3066 6.57928 1.807 5.72675C2.3074 4.85568 2.8078 4.10508 3.3082 3.47494C3.82714 2.84481 4.26267 2.40001 4.61481 2.14054L5.14301 1.75134L6.47741 2.91894C6.25501 3.25254 5.97701 3.82708 5.64341 4.64255C5.32834 5.43948 5.05961 6.22715 4.83721 7.00555Z" fill="#1C2747"/>
<path d="M8.17767 7.36689C9.21553 7.12596 10.1793 7.00549 11.0689 7.00549C11.9585 7.00549 12.7091 7.03329 13.3207 7.08889V18.1811C14.0435 18.4591 14.5531 18.7741 14.8497 19.1263L14.5717 21.2669H8.17767L7.89966 19.1263C8.15913 18.7741 8.6688 18.4591 9.42867 18.1811V10.4527C8.78 10.2303 8.27033 9.91523 7.89966 9.50749L8.17767 7.36689Z" fill="#1C2747"/>
<path d="M16.2392 7.36693C17.2586 7.14453 18.176 7.03333 18.9915 7.03333C19.8069 7.03333 20.4834 7.05186 21.0209 7.08893V8.47892C21.4842 8.08972 22.0958 7.77466 22.8557 7.53373C23.6341 7.27426 24.3754 7.14453 25.0797 7.14453C26.8959 7.14453 28.1655 7.5708 28.8883 8.42333C29.6296 9.27587 30.0003 10.7493 30.0003 12.8436V18.1812C30.7231 18.4592 31.2327 18.7742 31.5293 19.1264L31.2513 21.267H24.8573L24.5793 19.1264C24.8387 18.7742 25.3484 18.4592 26.1083 18.1812V12.6768C26.1083 11.676 25.9415 11.0088 25.6079 10.6752C25.2928 10.323 24.7183 10.147 23.8843 10.147C23.0503 10.147 22.2163 10.4435 21.3823 11.0366V18.1812C22.1051 18.4592 22.6147 18.7742 22.9113 19.1264L22.6333 21.267H16.2392L15.9612 19.1264C16.2207 18.7742 16.7304 18.4592 17.4903 18.1812V10.4528C16.8416 10.2304 16.3319 9.91527 15.9612 9.50753L16.2392 7.36693Z" fill="#1C2747"/>
<path d="M38.0548 9.64653C36.8316 9.64653 36.22 10.008 36.22 10.7308C36.22 11.4165 36.8594 11.9262 38.1382 12.2598L40.3344 12.8436C42.5955 13.4366 43.726 14.7432 43.726 16.7634C43.726 18.1534 43.2349 19.2932 42.2526 20.1828C41.2888 21.0538 39.7413 21.4894 37.61 21.4894C35.4972 21.4894 33.8477 21.1928 32.6616 20.5998C32.643 20.3959 32.6338 20.192 32.6338 19.9882C32.6338 18.9688 32.8376 18.0514 33.2454 17.236H35.5528C35.7937 17.6808 35.9512 18.1441 36.0254 18.626C36.396 18.7372 36.9242 18.7928 37.61 18.7928C39.2409 18.7928 40.0564 18.3294 40.0564 17.4028C40.0564 17.1062 39.9452 16.8653 39.7228 16.68C39.5004 16.4761 39.0648 16.2815 38.4162 16.0962L36.22 15.4568C35.0894 15.1417 34.2091 14.6784 33.579 14.0668C32.9488 13.4366 32.6338 12.5192 32.6338 11.3146C32.6338 10.0914 33.1249 9.09053 34.1072 8.31213C35.0894 7.53373 36.4887 7.14453 38.305 7.14453C40.1398 7.14453 41.6873 7.41326 42.9476 7.95073C42.9661 8.13606 42.9754 8.3214 42.9754 8.50673C42.9754 9.47047 42.7715 10.3601 42.3638 11.1756H40.0842C39.8432 10.7493 39.6857 10.3045 39.6116 9.84113C39.0926 9.7114 38.5737 9.64653 38.0548 9.64653Z" fill="#1C2747"/>
<path d="M51.7093 21.4894C49.4853 21.4894 47.808 20.8963 46.6775 19.7102C45.5655 18.524 45.0095 16.8004 45.0095 14.5394C45.0095 13.1679 45.2041 11.991 45.5933 11.0088C45.9825 10.008 46.5107 9.2388 47.1779 8.70133C48.4752 7.66346 49.9857 7.14453 51.7093 7.14453C53.4329 7.14453 54.7487 7.58933 55.6569 8.47893C56.5836 9.35 57.0469 10.9254 57.0469 13.205C57.0469 14.5394 56.3889 15.2066 55.0731 15.2066H49.0405C49.1146 16.3742 49.4111 17.1989 49.9301 17.6808C50.4675 18.1626 51.3108 18.4036 52.4599 18.4036C53.09 18.4036 53.6923 18.3294 54.2669 18.1812C54.8414 18.0329 55.2584 17.8846 55.5179 17.7364L55.9071 17.514L56.7411 19.738C56.6299 19.8677 56.4631 20.0345 56.2407 20.2384C56.0368 20.4237 55.4993 20.6832 54.6283 21.0168C53.7757 21.3318 52.8027 21.4894 51.7093 21.4894ZM53.4607 12.7324C53.4977 12.4729 53.5163 12.1578 53.5163 11.7872C53.5163 11.4165 53.368 11.0273 53.0715 10.6196C52.7749 10.1933 52.256 9.98013 51.5147 9.98013C50.7919 9.98013 50.2359 10.2026 49.8467 10.6474C49.4575 11.0922 49.198 11.8428 49.0683 12.8992L53.4607 12.7324Z" fill="#1C2747"/>
<path d="M66.8158 10.7864C65.4072 10.7864 64.4342 11.0551 63.8968 11.5926V17.9588C65.398 18.2368 66.4266 18.626 66.9826 19.1264L66.7046 21.267H58.7538L58.4758 19.1264C58.7352 18.7742 59.2449 18.4592 60.0048 18.1812V10.4528C59.3561 10.2304 58.8464 9.91527 58.4758 9.50753L58.7538 7.36693C59.7731 7.14453 60.6905 7.03333 61.506 7.03333C62.3214 7.03333 62.9979 7.05186 63.5354 7.08893V8.84033C63.9616 8.33993 64.5084 7.9322 65.1756 7.61713C65.8428 7.28353 66.4451 7.11672 66.9826 7.11672C67.5386 7.11672 67.9185 7.16306 68.1224 7.25573L68.039 10.8698C67.6683 10.8142 67.2606 10.7864 66.8158 10.7864Z" fill="#1C2747"/>
<path d="M69.5319 7.36693C70.5512 7.14453 71.4686 7.03333 72.2841 7.03333C73.0996 7.03333 73.776 7.05186 74.3135 7.08893V8.47892C74.7583 8.10825 75.3143 7.7932 75.9815 7.53373C76.6487 7.27426 77.251 7.14453 77.7885 7.14453C79.9013 7.14453 81.3099 7.67273 82.0141 8.72913C82.4775 8.28433 83.0891 7.91366 83.8489 7.61713C84.6088 7.30206 85.3131 7.14453 85.9617 7.14453C88.0004 7.14453 89.3719 7.60785 90.0761 8.53452C90.7804 9.44266 91.1325 11.157 91.1325 13.6776V18.1812C91.8553 18.4592 92.365 18.7742 92.6615 19.1264L92.3835 21.267H85.9895L85.7115 19.1264C85.971 18.7742 86.4807 18.4592 87.2405 18.1812V12.6768C87.2405 11.6574 87.1015 10.981 86.8235 10.6474C86.5455 10.3138 85.9895 10.147 85.1555 10.147C84.3401 10.147 83.5617 10.4528 82.8203 11.0644C82.913 11.6945 82.9593 12.5656 82.9593 13.6776V18.1812C83.6821 18.4592 84.1918 18.7742 84.4883 19.1264L84.2103 21.267H77.8163L77.5383 19.1264C77.7978 18.7742 78.3075 18.4592 79.0673 18.1812V12.6768C79.0673 11.6574 78.9283 10.981 78.6503 10.6474C78.3723 10.3138 77.8256 10.147 77.0101 10.147C76.1946 10.147 75.4163 10.4435 74.6749 11.0366V18.1812C75.3977 18.4592 75.9074 18.7742 76.2039 19.1264L75.9259 21.267H69.5319L69.2539 19.1264C69.5134 18.7742 70.023 18.4592 70.7829 18.1812V10.4528C70.1342 10.2304 69.6246 9.91527 69.2539 9.50753L69.5319 7.36693Z" fill="#1C2747"/>
<path d="M98.193 5.72675C98.6563 6.56075 99.0733 7.70055 99.444 9.14615C99.8147 10.5918 100 12.1115 100 13.7054C100 15.2992 99.8239 16.8097 99.4718 18.2368C99.1197 19.6638 98.6934 20.8314 98.193 21.7396C97.1551 23.6114 96.2192 24.918 95.3852 25.6594L94.857 26.1042L93.4392 25.02C93.606 24.779 93.8747 24.1952 94.2454 23.2686C94.6161 22.3604 94.9219 21.4894 95.1628 20.6554C95.7559 18.524 96.0524 16.2166 96.0524 13.7332C96.0524 11.1941 95.7559 8.94229 95.1628 6.97775C94.6068 5.21708 94.1434 4.01241 93.7728 3.36374L93.5226 2.91894L94.857 1.75134C95.0053 1.84401 95.1906 1.98301 95.413 2.16834C95.6354 2.33514 96.0431 2.76141 96.6362 3.44714C97.2293 4.13288 97.7482 4.89275 98.193 5.72675Z" fill="#1C2747"/>
<path d="M4.83721 7.00555C4.61481 7.78395 4.41094 8.78475 4.22561 10.008C4.04027 11.2312 3.94761 12.4822 3.94761 13.761C3.94761 15.0212 4.03101 16.2815 4.19781 17.5418C4.38314 18.7835 4.60554 19.8399 4.86501 20.711C5.38394 22.416 5.86581 23.6856 6.31061 24.5196L6.56081 25.02L5.14301 26.1042C4.95767 25.9744 4.65187 25.6779 4.22561 25.2146C3.79934 24.7698 3.4194 24.325 3.0858 23.8802C2.77074 23.4354 2.4186 22.8516 2.0294 22.1288C1.6402 21.406 1.3066 20.6554 1.0286 19.877C0.342867 18.0051 0 16.1147 0 14.2058C0 12.2783 0.176067 10.601 0.528201 9.17395C0.880335 7.72835 1.3066 6.57928 1.807 5.72675C2.3074 4.85568 2.8078 4.10508 3.3082 3.47494C3.82714 2.84481 4.26267 2.40001 4.61481 2.14054L5.14301 1.75134L6.47741 2.91894C6.25501 3.25254 5.97701 3.82708 5.64341 4.64255C5.32834 5.43948 5.05961 6.22715 4.83721 7.00555Z" fill="#1579E9"/>
<path d="M98.193 5.72675C98.6563 6.56075 99.0733 7.70055 99.444 9.14615C99.8147 10.5918 100 12.1115 100 13.7054C100 15.2992 99.8239 16.8097 99.4718 18.2368C99.1197 19.6638 98.6934 20.8314 98.193 21.7396C97.1551 23.6114 96.2192 24.918 95.3852 25.6594L94.857 26.1042L93.4392 25.02C93.606 24.779 93.8747 24.1952 94.2454 23.2686C94.6161 22.3604 94.9219 21.4894 95.1628 20.6554C95.7559 18.524 96.0524 16.2166 96.0524 13.7332C96.0524 11.1941 95.7559 8.94229 95.1628 6.97775C94.6068 5.21708 94.1434 4.01241 93.7728 3.36374L93.5226 2.91894L94.857 1.75134C95.0053 1.84401 95.1906 1.98301 95.413 2.16834C95.6354 2.33514 96.0431 2.76141 96.6362 3.44714C97.2293 4.13288 97.7482 4.89275 98.193 5.72675Z" fill="#1579E9"/>
<path d="M10.7425 1.46354C10.8922 1.00288 11.5439 1.00288 11.6935 1.46354L11.8703 2.00766C11.9373 2.21368 12.1292 2.35316 12.3459 2.35316H12.918C13.4024 2.35316 13.6037 2.97296 13.2119 3.25766L12.749 3.59395C12.5738 3.72128 12.5004 3.94696 12.5674 4.15297L12.7442 4.6971C12.8939 5.15775 12.3666 5.54082 11.9748 5.25612L11.5119 4.91983C11.3367 4.7925 11.0994 4.7925 10.9241 4.91983L10.4612 5.25612C10.0694 5.54082 9.54218 5.15775 9.69186 4.6971L9.86866 4.15297C9.93559 3.94696 9.86226 3.72128 9.68702 3.59395L9.22416 3.25766C8.8323 2.97296 9.03369 2.35316 9.51805 2.35316H10.0901C10.3068 2.35316 10.4987 2.21368 10.5657 2.00766L10.7425 1.46354Z" fill="#1579E9"/>
</svg>
