<svg width="14" height="14" viewBox="0 0 14 14" fill="none" xmlns="http://www.w3.org/2000/svg">
<path d="M8.84571 9.7C8.49143 10.1029 7.99714 10.3486 7.36571 10.44V11.3486H6.66V10.4629C6.1 10.3943 5.64286 10.1857 5.29429 9.83714C4.94571 9.48857 4.72 8.99429 4.62286 8.35429L5.89143 8.21714C5.94286 8.47714 6.04 8.7 6.18286 8.88857C6.32571 9.07714 6.48286 9.21143 6.66 9.29714V7.26C6.02571 7.07714 5.56 6.80286 5.26286 6.43714C4.96571 6.06857 4.81714 5.62286 4.81714 5.09714C4.81714 4.56571 4.98571 4.12 5.32 3.75714C5.65429 3.39714 6.10286 3.18857 6.66 3.13143V2.65143H7.36571V3.13143C7.88 3.19429 8.29143 3.36857 8.59429 3.66C8.9 3.95143 9.09429 4.33714 9.17714 4.82286L7.94857 4.98286C7.87429 4.6 7.68 4.34 7.36571 4.20571V6.10571C8.14286 6.31714 8.67429 6.58857 8.95429 6.92571C9.23714 7.26 9.37714 7.69143 9.37714 8.21714C9.37714 8.80286 9.2 9.29714 8.84571 9.7ZM7 0C3.14 0 0 3.14 0 7C0 10.86 3.14 14 7 14C10.86 14 14 10.86 14 7C14 3.14 10.86 0 7 0Z" fill="#1579E9"/>
</svg>
