<svg width="14" height="14" viewBox="0 0 14 14" fill="none" xmlns="http://www.w3.org/2000/svg">
<path d="M4.41784 7.03125C1.83324 8.0614 -1.45726e-05 10.5838 -1.18659e-05 13.5318C-0.000246699 13.5934 0.0117109 13.6544 0.0351715 13.7113C0.0586322 13.7683 0.093132 13.82 0.136682 13.8636C0.180232 13.9071 0.231972 13.9416 0.288918 13.9651C0.345864 13.9886 0.40689 14.0005 0.468479 14.0003H13.5352C13.6589 13.9998 13.7774 13.9501 13.8646 13.8623C13.9518 13.7744 14.0005 13.6556 14 13.5318C14 10.5841 12.1673 8.0616 9.58308 7.03125C8.86847 7.59162 7.97194 7.92995 7 7.92995C6.02788 7.92995 5.13181 7.59182 4.41784 7.03125Z" fill="#1579E9"/>
<path d="M6.99999 0C4.94366 0 3.26939 1.67428 3.26939 3.73061C3.26939 5.78695 4.94366 7.46486 6.99999 7.46486C9.05633 7.46486 10.7342 5.78695 10.7342 3.73061C10.7342 1.67428 9.05633 0 6.99999 0Z" fill="#1579E9"/>
</svg>
