<svg width="14" height="14" viewBox="0 0 14 14" fill="none" xmlns="http://www.w3.org/2000/svg">
<path d="M-5.87481e-07 0.560001L-2.44784e-08 13.44C-1.09388e-08 13.7498 0.25025 14 0.56 14L13.44 14C13.7498 14 14 13.7497 14 13.44L14 0.560001C14 0.250251 13.7498 8.29491e-07 13.44 8.4303e-07L0.559999 1.40603e-06C0.250249 1.41957e-06 -6.01021e-07 0.250251 -5.87481e-07 0.560001ZM11.06 9.52C11.137 9.52 11.2 9.583 11.2 9.66L11.2 11.06C11.2 11.137 11.137 11.2 11.06 11.2L2.94 11.2C2.863 11.2 2.8 11.137 2.8 11.06L2.8 9.66C2.8 9.583 2.863 9.52 2.94 9.52L11.06 9.52ZM6.16 6.16C6.237 6.16 6.3 6.223 6.3 6.3L6.3 7.7C6.3 7.777 6.237 7.84 6.16 7.84L2.94 7.84C2.863 7.84 2.8 7.777 2.8 7.7L2.8 6.3C2.8 6.223 2.863 6.16 2.94 6.16L6.16 6.16ZM7.42 2.8C7.497 2.8 7.56 2.863 7.56 2.94L7.56 4.34C7.56 4.417 7.497 4.48 7.42 4.48L2.94 4.48C2.863 4.48 2.8 4.417 2.8 4.34L2.8 2.94C2.8 2.863 2.863 2.8 2.94 2.8L7.42 2.8Z" fill="#1579E9"/>
</svg>
