<svg width="16" height="16" viewBox="0 0 16 16" fill="none" xmlns="http://www.w3.org/2000/svg">
<path d="M7.99831 14.8304C11.7282 14.8304 14.8287 11.7366 14.8287 8.00005C14.8287 4.27013 11.7215 1.16968 7.99163 1.16968C4.255 1.16968 1.16797 4.27013 1.16797 8.00005C1.16797 11.7366 4.26171 14.8304 7.99831 14.8304ZM5.32643 11.73C5.16571 11.6094 5.13894 11.4152 5.23268 11.1407L6.04965 8.69648L3.96037 7.20316C3.71931 7.03576 3.63225 6.84828 3.68583 6.66076C3.74608 6.47996 3.93357 6.38622 4.22154 6.38622L6.79297 6.40631L7.57645 3.94871C7.6568 3.67416 7.79743 3.52682 7.99831 3.52682C8.1992 3.52682 8.33314 3.67416 8.4202 3.94871L9.20368 6.40631L11.7684 6.38622C12.0631 6.38622 12.2371 6.47996 12.3041 6.66076C12.3711 6.84828 12.2706 7.03576 12.0363 7.20316L9.94028 8.69648L10.7573 11.1407C10.851 11.4152 10.8242 11.6094 10.6702 11.73C10.5028 11.8572 10.3086 11.8103 10.0742 11.6362L7.99831 10.1161L5.92243 11.6362C5.68134 11.8103 5.48717 11.8572 5.32643 11.73Z" fill="#1579E9"/>
</svg>
