<svg width="20" height="20" viewBox="0 0 20 20" fill="none" xmlns="http://www.w3.org/2000/svg">
<path fill-rule="evenodd" clip-rule="evenodd" d="M5.14796 3C4.51396 3 4 3.51633 4 4.15212V18H4.8946C5.01995 18 5.1633 17.9042 5.21357 17.7887L5.74218 16.575C6.04701 15.8751 6.90816 15.3077 7.67181 15.3077H15.8543C16.487 15.3077 17 14.7945 17 14.1553V4.15235C17 3.51592 16.4864 3 15.852 3H5.14796ZM7.82353 10.3077C8.24586 10.3077 8.58824 9.9633 8.58824 9.53846C8.58824 9.11363 8.24586 8.76923 7.82353 8.76923C7.40119 8.76923 7.05882 9.11363 7.05882 9.53846C7.05882 9.9633 7.40119 10.3077 7.82353 10.3077ZM10.5 10.3077C10.9223 10.3077 11.2647 9.9633 11.2647 9.53846C11.2647 9.11363 10.9223 8.76923 10.5 8.76923C10.0777 8.76923 9.73529 9.11363 9.73529 9.53846C9.73529 9.9633 10.0777 10.3077 10.5 10.3077ZM13.1765 10.3077C13.5988 10.3077 13.9412 9.9633 13.9412 9.53846C13.9412 9.11363 13.5988 8.76923 13.1765 8.76923C12.7541 8.76923 12.4118 9.11363 12.4118 9.53846C12.4118 9.9633 12.7541 10.3077 13.1765 10.3077Z" fill="#1579E9"/>
</svg>
