<svg width="15" height="15" viewBox="0 0 15 15" fill="none" xmlns="http://www.w3.org/2000/svg">
<path d="M14.6029 5.86353H12.4832C12.4002 5.61145 12.2987 5.36769 12.1801 5.13401L13.6797 3.63446C13.8347 3.47943 13.8347 3.2281 13.6797 3.0731L11.9268 1.3202C11.7717 1.16517 11.5204 1.16517 11.3654 1.3202L9.86586 2.81975C9.63218 2.70114 9.38845 2.59969 9.13637 2.51669V0.396963C9.13641 0.177715 8.95869 0 8.73944 0H6.26049C6.04128 0 5.86353 0.177715 5.86353 0.396931V2.51669C5.61145 2.59965 5.36773 2.70114 5.13401 2.81975L3.63449 1.32023C3.47946 1.1652 3.22814 1.1652 3.07314 1.32023L1.32023 3.07314C1.1652 3.22814 1.1652 3.47949 1.32023 3.63449L2.81975 5.13401C2.70114 5.36769 2.59965 5.61145 2.51669 5.86353H0.396963C0.177715 5.86353 0 6.04128 0 6.26049V8.73944C0 8.95866 0.177715 9.13637 0.396963 9.13637H2.51672C2.59972 9.38845 2.70118 9.63218 2.81978 9.86589L1.32027 11.3654C1.16523 11.5204 1.16523 11.7718 1.32027 11.9268L3.07317 13.6797C3.2282 13.8347 3.47952 13.8347 3.63453 13.6797L5.13405 12.1802C5.36773 12.2988 5.61145 12.4002 5.86356 12.4832V14.603C5.86356 14.8222 6.04128 14.9999 6.26053 14.9999H8.73948C8.95869 14.9999 9.13644 14.8222 9.13644 14.603V12.4832C9.38851 12.4002 9.63224 12.2988 9.86592 12.1802L11.3655 13.6797C11.5205 13.8347 11.7718 13.8347 11.9268 13.6797L13.6797 11.9268C13.8348 11.7717 13.8348 11.5204 13.6797 11.3654L12.1802 9.86589C12.2988 9.63221 12.4003 9.38848 12.4833 9.13641H14.603C14.8223 9.13641 15 8.95869 15 8.73948V6.26053C14.9999 6.04128 14.8222 5.86353 14.6029 5.86353ZM7.49995 9.47619C6.40849 9.47619 5.52368 8.59138 5.52368 7.49992C5.52368 6.40846 6.40849 5.52364 7.49995 5.52364C8.59141 5.52364 9.47622 6.40846 9.47622 7.49992C9.47622 8.59138 8.59141 9.47619 7.49995 9.47619Z" fill="#1579E9"/>
</svg>
