<svg width="16" height="12" viewBox="0 0 16 12" fill="none" xmlns="http://www.w3.org/2000/svg">
<path d="M8.59268 5.73939C8.59268 4.436 9.65309 3.37536 10.9564 3.37536H14.9567V0.974357C14.9567 0.436809 14.5205 1.85484e-09 13.9826 1.85484e-09H0.974094C0.436152 -3.28657e-05 0 0.436743 0 0.974324V10.5044C0 11.0426 0.436152 11.4787 0.974094 11.4787H13.9826C14.5205 11.4787 14.9567 11.0426 14.9567 10.5044V8.10335H10.9564C9.65302 8.10338 8.59268 7.04278 8.59268 5.73939Z" fill="#1579E9"/>
<path d="M15.483 4.17334H10.9564C10.0921 4.17334 9.39124 4.87421 9.39124 5.73882C9.39124 6.60353 10.0921 7.30427 10.9564 7.30427H15.483C15.7686 7.30427 16.0001 7.07235 16.0001 6.78746V4.69061C16.0001 4.40519 15.7685 4.17334 15.483 4.17334Z" fill="#1579E9"/>
</svg>
