<svg width="20" height="20" viewBox="0 0 20 20" fill="none" xmlns="http://www.w3.org/2000/svg">
<path d="M10 0C4.47711 0 0 4.47711 0 10C0 15.5229 4.47711 20 10 20C15.5229 20 20 15.5229 20 10C20 4.47711 15.5229 0 10 0Z" fill="#40B3E0"/>
<path d="M14.8653 5.75251L13.0792 14.7577C13.0792 14.7577 12.8294 15.3823 12.1425 15.0825L8.02077 11.9225L6.52202 11.1981L3.99906 10.3488C3.99906 10.3488 3.61187 10.2114 3.57437 9.91165C3.53695 9.61189 4.01156 9.44954 4.01156 9.44954L14.0409 5.51517C14.0409 5.51517 14.8653 5.15298 14.8653 5.75251Z" fill="white"/>
<path d="M7.70344 14.6566C7.70344 14.6566 7.58312 14.6454 7.4332 14.1707C7.28336 13.6961 6.52148 11.1981 6.52148 11.1981L12.5791 7.35121C12.5791 7.35121 12.9288 7.13887 12.9163 7.35121C12.9163 7.35121 12.9788 7.38863 12.7914 7.56348C12.6041 7.7384 8.03273 11.8475 8.03273 11.8475" fill="#D2E5F1"/>
<path d="M9.60227 13.134L7.97195 14.6204C7.97195 14.6204 7.84453 14.7171 7.70508 14.6565L8.01727 11.8955" fill="#B5CFE4"/>
</svg>
