<svg width="16" height="16" viewBox="0 0 16 16" fill="none" xmlns="http://www.w3.org/2000/svg">
<circle cx="8" cy="8" r="8" fill="#E73E3E"/>
<path d="M4.53979 7.01988L6.53979 6.49988C6.75979 6.43988 6.89979 6.21988 6.83979 5.97988C6.77979 5.75988 6.55979 5.61988 6.31979 5.67988L5.27979 5.95988C5.61979 5.51988 6.05979 5.15988 6.59979 4.91988C7.41979 4.55988 8.31979 4.53988 9.15979 4.85988C9.97979 5.17988 10.6398 5.81988 10.9998 6.61988C11.0998 6.83988 11.3398 6.91988 11.5598 6.83988C11.7798 6.73988 11.8598 6.49988 11.7798 6.27988C11.3398 5.25988 10.5198 4.47988 9.47979 4.05988C8.43979 3.65988 7.29979 3.67988 6.27979 4.11988C5.59979 4.41988 5.03979 4.87988 4.59979 5.45988L4.33979 4.47988C4.27979 4.25988 4.05979 4.11988 3.81979 4.17988C3.59979 4.23988 3.45979 4.45988 3.51979 4.69988L4.03979 6.69988C4.09979 6.97988 4.23979 7.09988 4.53979 7.01988ZM12.3598 11.2599L11.8398 9.27988C11.8398 9.27988 11.7598 8.87988 11.3598 8.97988L9.35979 9.49988C9.13979 9.55988 8.99979 9.77988 9.05979 10.0199C9.11979 10.2399 9.33979 10.3799 9.57979 10.3199L10.6198 10.0399C9.73979 11.1999 8.17979 11.6799 6.75979 11.1199C5.93979 10.7999 5.27979 10.1599 4.91979 9.35988C4.81979 9.13988 4.57979 9.05988 4.35979 9.13988C4.13979 9.23988 4.05979 9.47988 4.13979 9.69988C4.57979 10.7199 5.39979 11.4999 6.43979 11.9199C6.93979 12.1199 7.43979 12.1999 7.95979 12.1999C9.27979 12.1999 10.5198 11.5799 11.3198 10.4999L11.5798 11.4799C11.6198 11.6599 11.7998 11.7999 11.9798 11.7999C12.0198 11.7999 12.0598 11.7999 12.0798 11.7799C12.2798 11.6999 12.4198 11.4799 12.3598 11.2599Z" fill="white"/>
</svg>
