<svg width="16" height="16" viewBox="0 0 16 16" fill="none" xmlns="http://www.w3.org/2000/svg">
<circle cx="8" cy="8" r="8" fill="#23C915"/>
<path d="M7.66939 10.6694C7.58166 10.6699 7.49468 10.6531 7.41346 10.6199C7.33223 10.5867 7.25835 10.5378 7.19606 10.4761L5.19606 8.47606C5.1339 8.4139 5.0846 8.34011 5.05095 8.25889C5.01731 8.17768 5 8.09063 5 8.00273C5 7.82519 5.07053 7.65493 5.19606 7.52939C5.3216 7.40386 5.49186 7.33333 5.66939 7.33333C5.84693 7.33333 6.01719 7.40386 6.14273 7.52939L7.66939 9.06273L10.5294 6.19606C10.6549 6.07053 10.8252 6 11.0027 6C11.1803 6 11.3505 6.07053 11.4761 6.19606C11.6016 6.3216 11.6721 6.49186 11.6721 6.66939C11.6721 6.84693 11.6016 7.01719 11.4761 7.14273L8.14273 10.4761C8.08043 10.5378 8.00656 10.5867 7.92533 10.6199C7.84411 10.6531 7.75713 10.6699 7.66939 10.6694Z" fill="white"/>
</svg>
