<svg width="20" height="20" viewBox="0 0 20 20" fill="none" xmlns="http://www.w3.org/2000/svg">
<path d="M0 20L1.72 14.8403C0.847241 13.3724 0.344828 11.6593 0.344828 9.82759C0.344828 4.4 4.74483 0 10.1724 0C15.6 0 20 4.4 20 9.82759C20 15.2552 15.6 19.6552 10.1724 19.6552C8.52103 19.6552 6.96586 19.2459 5.6 18.5266L0 20Z" fill="#2CB742"/>
<path d="M16.4431 13.0981C15.9893 12.2406 14.3159 11.2599 14.3159 11.2599C13.9372 11.044 13.4803 11.0199 13.2645 11.4047C13.2645 11.4047 12.7207 12.0568 12.5824 12.1506C11.9507 12.5785 11.3655 12.5619 10.7748 11.9712L9.40207 10.5985L8.02931 9.22573C7.43862 8.63504 7.42207 8.04987 7.85 7.41815C7.94379 7.27987 8.59586 6.73608 8.59586 6.73608C8.98069 6.51987 8.95655 6.06332 8.74069 5.6847C8.74069 5.6847 7.76 4.01125 6.90241 3.55746C6.53759 3.36435 6.08966 3.43194 5.79793 3.72366L5.19172 4.32987C3.26862 6.25297 4.21552 8.42401 6.13862 10.3471L7.89621 12.1047L9.65379 13.8623C11.5769 15.7854 13.7479 16.7323 15.671 14.8092L16.2772 14.203C16.569 13.9106 16.6362 13.4626 16.4431 13.0981Z" fill="white"/>
</svg>
